<svg xmlns="http://www.w3.org/2000/svg" width="140" height="73" fill="none"><path fill="#fff" fill-rule="evenodd" d="M20.621 15.511C12.635 19.077.887 26.241.887 36.344c0 10.104 11.748 17.256 19.745 20.833C35.497 63.823 53.856 66.3 70.011 66.3s34.503-2.477 49.378-9.123c7.987-3.566 19.735-10.729 19.735-20.833s-11.748-17.256-19.735-20.833c-14.865-6.646-33.223-9.123-49.378-9.123S35.497 8.865 20.632 15.51zM.5 36.344C.5 56.412 31.617 72.688 70 72.688s69.5-16.276 69.5-36.344S108.383 0 70 0 .5 16.265.5 36.344" clip-rule="evenodd"/><path fill="#fff" fill-rule="evenodd" d="M128.139 45.65c-1.817.109-3.827.076-5.783.076-3.87 0-6.858-.603-9.04-2.499-2.074-1.82-3.117-4.244-3.117-7.292 0-2.844.925-5.16 2.773-6.959 2.193-2.133 5.439-2.833 9.663-2.833 1.849 0 3.59-.064 5.45.022l-.086 4.718a332 332 0 0 0-5.751-.054c-1.633 0-2.966.463-3.976 1.39-1.022.926-1.538 2.11-1.538 3.543 0 1.293.334 2.37.989 3.232.946 1.239 2.505 1.853 4.665 1.853 1.419 0 4.386.086 5.74.043v4.76zM43.752 26.09h-.613v19.647h6.18V33.425l9.33 12.301h6.783V26.09h-6.74v12.345L49.32 26.089zm65.244 19.658H90.97V26.1h17.821v4.632H98.784v2.833h9.567v4.492h-9.567l-.021 2.779h10.211zM88.939 30.732h-6.89v15.016h-7.814V30.732h-6.89V26.1h21.583v4.632zM40.796 45.737h-8.093c0-5.795.107-19.637.107-19.637h7.986v19.648zM30.585 39.48c0 1.67-.548 3.037-1.634 4.125-1.655 1.648-4.407 2.112-8.32 2.112h-8.716L12 41.364c2.45.108 4.847 0 7.212 0 1.268 0 2.16-.119 2.698-.366.537-.248.806-.582.806-1.013 0-.506-.355-.883-1.075-1.12-.236-.076-.978-.248-2.246-.507-2.257-.452-3.859-.958-4.816-1.518-1.752-1.035-2.622-2.607-2.622-4.718 0-1.724.666-3.124 2.01-4.212 1.784-1.444 4.61-1.745 8.491-1.745l8.169-.043-.075 4.405c-1.881.011-5.353-.053-7.374-.053-1.064 0-1.816.053-2.246.172-.742.194-1.107.57-1.107 1.152 0 .485.376.84 1.14 1.067.364.107.837.204 1.396.312 1.892.345 3.128.625 3.73.819 1.387.43 2.43 1.034 3.15 1.799.892.937 1.343 2.176 1.343 3.705z" clip-rule="evenodd"/></svg>